# xmcd
#
# Track frame offsets:
#	150
#	5729
#	31820
#	63022
#	90091
#	115706
#	152427
#	196774
#	224113
#	259418
#
# Disc length: 3883 seconds
#
# Revision: 1
# Processed by: cddbd v1.5.2PL0 Copyright (c) Steve Scherf et al.
# Submitted via: EasyCDDAExtractor 7.0.6.1
#
DISCID=780f290a
DTITLE=Eric Clapton and Friends - Live at Royal Albert Hall
DYEAR=1991
DGENRE=Blues
TTITLE0=Intro
TTITLE1=Watch Yourself
TTITLE2=Hoodoo Man
TTITLE3=Hideaway
TTITLE4=Standing Around Crying
TTITLE5=All Your Love
TTITLE6=Have You Ever Loved A Woman
TTITLE7=Who's Loving You Tonight
TTITLE8=Key To The Highway
TTITLE9=Wee Wee Baby - Jimmie Vaughan
EXTD=
EXTT0=
EXTT1=
EXTT2=
EXTT3=
EXTT4=
EXTT5=
EXTT6=
EXTT7=
EXTT8=
EXTT9=
PLAYORDER=
